<?xml version="1.0" encoding="utf-8"?>
<!-- Generator: Adobe Illustrator 24.1.1, SVG Export Plug-In . SVG Version: 6.00 Build 0)  -->
<svg version="1.1" id="Layer_1" xmlns="http://www.w3.org/2000/svg" xmlns:xlink="http://www.w3.org/1999/xlink" x="0px" y="0px"
	 viewBox="0 0 512 512" style="enable-background:new 0 0 512 512;" xml:space="preserve">
<style type="text/css">
	.st0{fill:#77B3D4;}
	.st1{fill:#6695B0;}
	.st2{fill:#4F5D73;}
	.st3{fill:#465162;}
	.st4{fill:#76C2AF;}
	.st5{fill:#597D93;}
</style>
<g id="XMLID_1_">
	<path id="XMLID_3_" class="st0" d="M256,0c141,0,256,115,256,256S397,512,256,512S0,397,0,256S115,0,256,0"/>
	<path id="XMLID_6_" class="st1" d="M177.2,271.8l-61.4,5.5c0.8,7.9,1.6,15.8,3.9,23.6l58.3-5.5c22.8,0,41.7,16.5,45.7,37.8v-15.8
		C223.7,293,203.2,271.8,177.2,271.8 M334.8,271.8c-26,0-46.5,20.5-46.5,46.5v59.9c0,3.2,0,6.3,0.8,8.7v-44.1
		c0-25.2,20.5-46.5,46.5-46.5l56.7,4.7c1.6-7.9,3.2-15.8,3.9-23.6L334.8,271.8"/>
	<path id="XMLID_7_" class="st2" d="M96.1,223.7c-9.5,0,0-15.8-8.7-16.5c-4.7,15-7.1,32.3-7.1,48.8c0,6.3,0,11.8,0.8,17.3
		c3.9-1.6,8.7,6.3,12.6,6.3l83.5-7.9c26,0,46.5,20.5,46.5,46.5v59.9c0,19.7-11.8,36.2-29.9,43.3c18.9,7.1,40.2,11,61.4,11
		s42.5-3.9,61.4-11c-17.3-6.3-29.9-22.8-29.9-43.3v-59.9c0-26,20.5-46.5,46.5-46.5l84.3,7.9c4.7,0,8.7-7.1,12.6-6.3
		c0.8-5.5,0.8-11,0.8-17.3c0-16.5-2.4-33.9-7.1-48.8c-8.7,0.8,0.8,16.5-8.7,16.5c0,0-96.1-15.8-159.9-15.8
		C192.2,208,96.1,223.7,96.1,223.7"/>
	<path id="XMLID_8_" class="st3" d="M256,240.2c-13.4,0-23.6,11-23.6,23.6c0,13.4,11,23.6,23.6,23.6c13.4,0,23.6-11,23.6-23.6
		C279.6,250.5,269.4,240.2,256,240.2"/>
	<circle id="XMLID_9_" class="st4" cx="256" cy="256" r="23.6"/>
	<path id="XMLID_12_" class="st1" d="M80.3,265.5c0,2.4,0,3.9,0,6.3c0,97.7,78.8,175.7,175.7,175.7s175.7-78.8,175.7-175.7
		c0-2.4,0-3.9,0-6.3c0,2.4,0,5.5-0.8,7.9h-0.8c-3.9,0-7.9,6.3-11.8,6.3l-5.5,0c-2.4,7.9-4.7,15.8-5.5,23.6l-15.8-1.6
		c-11.8,48-49.6,86.6-96.9,100.8c5.5,8.7,13.4,15.8,22.8,18.9c-18.9,7.1-40.2,11-61.4,11s-42.5-3.9-61.4-11
		c9.5-3.9,17.3-10.2,22.8-18.9c-47.3-14.2-85.1-52.8-96.9-100.8l-15.8,1.6c-1.6-7.9-3.2-15.8-5.5-23.6h-5.5c-3.9,0-7.9-6.3-11.8-6.3
		h-0.8C80.3,271,80.3,268.6,80.3,265.5 M256,96.1c-75.6,0-140.2,47.3-164.6,114.2c1.6,4.7-2.4,13.4,4.7,13.4c0,0,11-1.6,28.4-4.7
		c19.7-53.6,71.7-91.4,131.5-91.4s111.1,38.6,131.5,91.4c17.3,2.4,28.4,4.7,28.4,4.7c7.1,0,3.9-8.7,4.7-13.4
		C396.2,143.4,331.6,96.1,256,96.1"/>
	<path id="XMLID_15_" class="st5" d="M116.6,278.1l-17.3,1.6c2.4,7.9,4.7,15.8,5.5,23.6l15-1.6C118.2,293.8,116.6,285.9,116.6,278.1
		 M395.4,278.1c-0.8,7.9-1.6,16.5-3.9,23.6l15.8,1.6c0.8-7.9,3.2-15.8,5.5-23.6L395.4,278.1"/>
	<path id="XMLID_19_" class="st3" d="M217.4,402.5c-5.5,8.7-13.4,15-22.8,18.9c18.9,7.1,40.2,11,61.4,11s42.5-3.9,61.4-11
		c-9.5-3.9-18.1-10.2-22.8-18.9c-12.6,3.9-25.2,5.5-38.6,5.5C242.6,408,230,406.4,217.4,402.5 M91.4,210.3
		c-6.3,17.3-10.2,35.4-11,55.1c0,2.4,0,5.5,0.8,7.9h0.8c3.9,0,7.9,6.3,11.8,6.3l5.5-0.8l17.3-1.6c0-3.2,0-6.3,0-9.5
		c0-17.3,3.2-33.1,8.7-48c-17.3,2.4-28.4,4.7-28.4,4.7C89,223.7,92.2,215,91.4,210.3 M420.6,210.3c-1.6,4.7,2.4,13.4-4.7,13.4
		c0,0-11-1.6-28.4-4.7c5.5,15,8.7,31.5,8.7,48c0,3.2,0,6.3,0,9.5l16.5,1.6l5.5,0.8c4.7,0,8.7-6.3,11.8-6.3h0.8
		c0-2.4,0.8-5.5,0.8-7.9C430.9,245.8,427.7,227.6,420.6,210.3"/>
	<path id="XMLID_22_" class="st2" d="M256,111.9c79.6,0,144.1,64.6,144.1,144.1S335.6,400.1,256,400.1S111.9,335.6,111.9,256
		S176.4,111.9,256,111.9 M256,80.3c-97.7,0-175.7,78.8-175.7,175.7S159.1,431.7,256,431.7S431.7,352.9,431.7,256
		S353.7,80.3,256,80.3z"/>
</g>
</svg>
